<?xml version="1.0" encoding="utf-8"?>
<!-- Generator: Adobe Illustrator 16.0.0, SVG Export Plug-In . SVG Version: 6.00 Build 0)  -->
<!DOCTYPE svg PUBLIC "-//W3C//DTD SVG 1.1//EN" "http://www.w3.org/Graphics/SVG/1.1/DTD/svg11.dtd">
<svg version="1.1" id="Layer_1" xmlns="http://www.w3.org/2000/svg" xmlns:xlink="http://www.w3.org/1999/xlink" x="0px" y="0px"
	 width="832px" height="111px" viewBox="0 0 832 111" enable-background="new 0 0 832 111" xml:space="preserve">
<path fill="#FAD700" d="M-0.413,110.933V0.067h61.704v110.865H-0.413z M6.345,94.525h48.187V76.721H23.99V63.988h22.391V46.184
	H23.99V33.451h30.542V15.646H6.345V94.525z"/>
<path fill="#FAD700" d="M59.898,110.933V0.067h64.438v110.865H59.898z M65.573,76.41c0.688,2.83,1.832,5.357,3.431,7.582
	c1.599,2.227,3.525,4.115,5.778,5.668c2.252,1.553,4.772,2.752,7.558,3.598s5.761,1.268,8.925,1.268
	c4.093,0,7.756-0.475,10.989-1.424c3.233-0.948,5.993-2.26,8.281-3.934c2.287-1.673,4.083-3.623,5.391-5.848
	c1.307-2.227,2.029-4.598,2.167-7.117v-1.501c0-4.037-0.705-7.522-2.115-10.455c-1.411-2.933-3.276-5.563-5.598-7.894
	c-2.322-2.329-4.979-4.407-7.971-6.236c-2.992-1.829-6.105-3.675-9.338-5.538c-2.339-1.69-4.05-3.045-5.134-4.063
	c-1.083-1.018-1.625-2.2-1.625-3.545c0-1.76,0.576-3.08,1.729-3.959c1.152-0.88,2.433-1.32,3.843-1.32
	c1.342,0,2.528,0.276,3.56,0.828c1.032,0.552,1.917,1.234,2.657,2.044c0.739,0.811,1.315,1.7,1.728,2.666
	c0.413,0.966,0.722,1.829,0.929,2.588l15.529-6.159c-0.344-2.104-1.075-4.235-2.193-6.392c-1.118-2.156-2.683-4.08-4.695-5.771
	c-2.012-1.69-4.48-3.088-7.403-4.192c-2.924-1.104-6.329-1.656-10.215-1.656c-3.233,0.069-6.364,0.569-9.39,1.501
	c-3.027,0.932-5.701,2.277-8.022,4.037c-2.322,1.76-4.188,3.951-5.598,6.573c-1.411,2.623-2.115,5.659-2.115,9.109
	c0,3.761,0.653,6.875,1.96,9.342c1.307,2.467,3.104,4.684,5.392,6.651c2.287,1.967,4.961,3.856,8.022,5.667
	c3.061,1.812,6.38,3.926,9.958,6.341c1.616,1.139,2.871,2.208,3.766,3.209c0.962,1.104,1.444,2.329,1.444,3.675
	c0,1.795-0.55,3.141-1.651,4.037c-1.169,0.932-2.356,1.449-3.56,1.553c-0.276,0.035-0.551,0.052-0.826,0.052
	c-1.101,0-2.133-0.311-3.095-0.932c-1.238-0.828-2.279-1.751-3.122-2.769c-0.843-1.018-1.496-1.984-1.96-2.898
	s-0.628-1.406-0.49-1.476L65.573,76.41z"/>
<path fill="#FAD700" d="M123.563,110.933V0.067h60.001v110.865H123.563z M130.321,94.525h18.058V66.731h5.873h0.104
	c3.396,0,6.479-0.612,9.25-1.837s5.128-2.968,7.068-5.229c1.939-2.26,3.447-4.951,4.521-8.074c1.074-3.123,1.612-6.582,1.612-10.377
	c0-3.899-0.536-7.418-1.607-10.559c-1.071-3.14-2.574-5.823-4.508-8.048c-1.935-2.226-4.285-3.942-7.048-5.15
	c-2.763-1.208-5.838-1.812-9.224-1.812h-0.104h-23.994V94.525z"/>
<path fill="#FAD700" d="M182.688,110.933V0.067h62.736v110.865H182.688z M189.446,94.525h17.748V68.854h0.206l10.577,25.672h20.361
	l-15.924-31.469c0.928,0,2.201-0.482,3.817-1.449c1.617-0.966,3.216-2.381,4.798-4.244c1.582-1.863,2.949-4.175,4.102-6.936
	c1.152-2.76,1.729-5.9,1.729-9.42c0-3.381-0.387-6.616-1.161-9.705c-0.774-3.088-2.056-5.779-3.844-8.074
	c-1.789-2.294-4.179-4.132-7.171-5.512c-2.993-1.38-6.742-2.07-11.247-2.07h-0.104h-23.887V94.525z"/>
<path fill="#FAD700" d="M244.134,110.933V0.067h61.704v110.865H244.134z M250.892,94.525h48.187V76.721h-30.542V63.988h22.391
	V46.184h-22.391V33.451h30.542V15.646h-48.187V94.525z"/>
<path fill="#FAD700" d="M304.445,110.933V0.067h64.438v110.865H304.445z M310.12,76.41c0.688,2.83,1.832,5.357,3.431,7.582
	c1.599,2.227,3.525,4.115,5.778,5.668c2.252,1.553,4.772,2.752,7.558,3.598s5.761,1.268,8.925,1.268
	c4.093,0,7.756-0.475,10.989-1.424c3.233-0.948,5.993-2.26,8.281-3.934c2.287-1.673,4.083-3.623,5.391-5.848
	c1.307-2.227,2.029-4.598,2.167-7.117v-1.501c0-4.037-0.705-7.522-2.115-10.455c-1.411-2.933-3.276-5.563-5.598-7.894
	c-2.322-2.329-4.979-4.407-7.971-6.236c-2.992-1.829-6.105-3.675-9.338-5.538c-2.339-1.69-4.05-3.045-5.134-4.063
	c-1.083-1.018-1.625-2.2-1.625-3.545c0-1.76,0.576-3.08,1.729-3.959c1.152-0.88,2.433-1.32,3.843-1.32
	c1.342,0,2.528,0.276,3.56,0.828c1.032,0.552,1.917,1.234,2.657,2.044c0.739,0.811,1.315,1.7,1.728,2.666
	c0.413,0.966,0.722,1.829,0.929,2.588l15.529-6.159c-0.344-2.104-1.075-4.235-2.193-6.392c-1.118-2.156-2.683-4.08-4.695-5.771
	c-2.012-1.69-4.48-3.088-7.403-4.192c-2.924-1.104-6.329-1.656-10.215-1.656c-3.233,0.069-6.364,0.569-9.39,1.501
	c-3.027,0.932-5.701,2.277-8.022,4.037c-2.322,1.76-4.188,3.951-5.598,6.573c-1.411,2.623-2.115,5.659-2.115,9.109
	c0,3.761,0.653,6.875,1.96,9.342c1.307,2.467,3.104,4.684,5.392,6.651c2.287,1.967,4.961,3.856,8.022,5.667
	c3.061,1.812,6.38,3.926,9.958,6.341c1.616,1.139,2.871,2.208,3.766,3.209c0.962,1.104,1.444,2.329,1.444,3.675
	c0,1.795-0.55,3.141-1.651,4.037c-1.169,0.932-2.356,1.449-3.56,1.553c-0.276,0.035-0.551,0.052-0.826,0.052
	c-1.101,0-2.133-0.311-3.095-0.932c-1.238-0.828-2.279-1.751-3.122-2.769c-0.843-1.018-1.496-1.984-1.96-2.898
	s-0.628-1.406-0.49-1.476L310.12,76.41z"/>
<path fill="#FAD700" d="M368.11,110.933V0.067h64.439v110.865H368.11z M373.785,76.41c0.688,2.83,1.832,5.357,3.431,7.582
	c1.599,2.227,3.525,4.115,5.778,5.668c2.252,1.553,4.772,2.752,7.558,3.598s5.76,1.268,8.925,1.268
	c4.093,0,7.756-0.475,10.989-1.424c3.232-0.948,5.993-2.26,8.28-3.934c2.287-1.673,4.084-3.623,5.392-5.848
	c1.307-2.227,2.029-4.598,2.167-7.117v-1.501c0-4.037-0.705-7.522-2.115-10.455c-1.411-2.933-3.276-5.563-5.598-7.894
	c-2.321-2.329-4.979-4.407-7.971-6.236c-2.993-1.829-6.106-3.675-9.339-5.538c-2.339-1.69-4.05-3.045-5.133-4.063
	c-1.084-1.018-1.625-2.2-1.625-3.545c0-1.76,0.576-3.08,1.729-3.959c1.151-0.88,2.433-1.32,3.843-1.32
	c1.342,0,2.528,0.276,3.561,0.828c1.031,0.552,1.916,1.234,2.656,2.044c0.739,0.811,1.315,1.7,1.729,2.666
	c0.413,0.966,0.723,1.829,0.929,2.588l15.529-6.159c-0.344-2.104-1.075-4.235-2.192-6.392c-1.118-2.156-2.683-4.08-4.695-5.771
	c-2.012-1.69-4.48-3.088-7.403-4.192c-2.924-1.104-6.329-1.656-10.215-1.656c-3.233,0.069-6.364,0.569-9.39,1.501
	c-3.027,0.932-5.701,2.277-8.022,4.037c-2.322,1.76-4.188,3.951-5.598,6.573c-1.411,2.623-2.115,5.659-2.115,9.109
	c0,3.761,0.653,6.875,1.96,9.342c1.307,2.467,3.104,4.684,5.392,6.651c2.287,1.967,4.961,3.856,8.022,5.667
	c3.061,1.812,6.379,3.926,9.958,6.341c1.616,1.139,2.871,2.208,3.766,3.209c0.963,1.104,1.445,2.329,1.445,3.675
	c0,1.795-0.551,3.141-1.651,4.037c-1.17,0.932-2.356,1.449-3.56,1.553c-0.275,0.035-0.551,0.052-0.825,0.052
	c-1.102,0-2.134-0.311-3.096-0.932c-1.238-0.828-2.279-1.751-3.122-2.769c-0.843-1.018-1.496-1.984-1.96-2.898
	s-0.628-1.406-0.49-1.476L373.785,76.41z"/>
<path fill="#FAD700" d="M431.774,110.933V0.067h70.32v110.865H431.774z M438.018,63.16c0.068,4.244,0.679,8.238,1.831,11.982
	s3.104,7.1,5.856,10.066c2.957,3.037,6.285,5.365,9.982,6.987s7.593,2.433,11.686,2.433h0.104c4.161,0,8.091-0.811,11.789-2.433
	c3.696-1.622,6.99-3.985,9.88-7.091c2.819-2.967,4.806-6.418,5.959-10.352c1.151-3.934,1.728-7.798,1.728-11.594V44.683
	c-0.068-3.588-0.73-7.082-1.985-10.481c-1.257-3.398-3.156-6.426-5.701-9.083c-2.89-3.036-6.184-5.374-9.88-7.013
	c-3.698-1.639-7.628-2.458-11.789-2.458h-0.104c-4.162,0-8.074,0.811-11.737,2.433c-3.663,1.622-6.974,3.968-9.931,7.039
	c-2.477,2.691-4.378,5.78-5.701,9.265c-1.324,3.485-1.986,6.918-1.986,10.3V63.16z"/>
<path fill="#FAD700" d="M530.935,110.933V0.067h71.507v110.865H530.935z M535.578,63.471c0.137,4.521,0.878,8.688,2.223,12.5
	c1.344,3.812,3.23,7.1,5.66,9.859c2.429,2.761,5.443,4.917,9.044,6.47s7.762,2.329,12.482,2.329h0.104
	c3.032,0,5.927-0.405,8.684-1.217c2.756-0.811,5.28-1.889,7.571-3.234s4.376-2.916,6.254-4.71s3.488-3.657,4.833-5.59V52.343
	h-25.435v15.269h8.375v3.934c-0.794,1.415-1.931,2.57-3.412,3.468c-1.413,0.862-3.239,1.294-5.479,1.294c-0.173,0-0.345,0-0.517,0
	c-1.754,0-3.371-0.354-4.85-1.061c-1.479-0.707-2.769-1.648-3.869-2.821c-1.102-1.173-1.97-2.588-2.605-4.244
	c-0.637-1.656-0.954-3.433-0.954-5.331V47.478c0-3.899,1.039-7.03,3.121-9.394c2.08-2.363,4.893-3.545,8.436-3.545
	c1.825,0,3.333,0.302,4.521,0.906c1.188,0.604,2.188,1.329,2.997,2.174c0.81,0.846,1.447,1.76,1.912,2.743s0.869,1.872,1.215,2.666
	l14.63-9.679c-0.688-1.069-1.499-2.553-2.43-4.451c-0.93-1.897-2.291-3.804-4.083-5.719s-4.187-3.597-7.184-5.046
	c-2.998-1.449-6.909-2.277-11.732-2.484h-0.104c-4.79,0-9.02,0.854-12.689,2.562c-3.669,1.708-6.735,3.985-9.199,6.832
	s-4.333,6.185-5.608,10.015s-1.912,7.867-1.912,12.111V63.471z"/>
<path fill="#FAD700" d="M601.615,110.933V0.067h70.372v110.865H601.615z M608.374,63.057c0,4.176,0.508,8.17,1.524,11.982
	s2.654,7.186,4.911,10.118s5.194,5.245,8.812,6.936c3.445,1.622,7.615,2.433,12.509,2.433c0.206,0,0.413,0,0.619,0h0.104
	c0.206,0,0.412,0,0.618,0c4.411,0,8.287-0.725,11.631-2.174c3.515-1.518,6.46-3.675,8.838-6.47
	c2.377-2.795,4.187-6.134,5.427-10.015c1.241-3.883,1.861-8.152,1.861-12.811V15.543h-18.366v46.116c0,1.897-0.189,3.7-0.568,5.409
	c-0.378,1.707-0.972,3.191-1.779,4.451c-0.809,1.26-1.85,2.26-3.121,3.002c-1.273,0.742-2.786,1.112-4.54,1.112
	c-1.755,0-3.269-0.37-4.541-1.112s-2.33-1.742-3.173-3.002s-1.462-2.744-1.857-4.451c-0.396-1.709-0.593-3.512-0.593-5.409V15.543
	h-18.315V63.057z"/>
<path fill="#FAD700" d="M670.491,110.933V0.067h31.266v110.865H670.491z M677.25,94.525h17.748V15.646H677.25V94.525z"/>
<path fill="#FAD700" d="M701.085,110.933V0.067h69.289v110.865H701.085z M708.928,94.525h15.875h2.319
	c6.391,0,11.802-1.061,16.235-3.184c4.432-2.121,8.023-4.985,10.771-8.592c2.749-3.605,4.716-7.789,5.902-12.551
	c1.185-4.762,1.778-9.799,1.778-15.113c0-5.59-0.773-10.8-2.319-15.631c-1.546-4.831-3.866-8.997-6.959-12.5
	c-3.092-3.502-6.958-6.263-11.597-8.281s-10.016-3.028-16.132-3.028h-15.875V94.525z"/>
<path fill="#FAD700" d="M769.651,110.933V0.067h61.705v110.865H769.651z M776.41,94.525h48.188V76.721h-30.543V63.988h22.392V46.184
	h-22.392V33.451h30.543V15.646H776.41V94.525z"/>
<path fill="#FAD700" d="M498.5,110.933V0.067H532v110.865H498.5z"/>
</svg>
