<?xml version="1.0" encoding="utf-8"?>
<!-- Generator: Adobe Illustrator 16.0.0, SVG Export Plug-In . SVG Version: 6.00 Build 0)  -->
<!DOCTYPE svg PUBLIC "-//W3C//DTD SVG 1.1//EN" "http://www.w3.org/Graphics/SVG/1.1/DTD/svg11.dtd">
<svg version="1.1" id="Layer_1" xmlns="http://www.w3.org/2000/svg" xmlns:xlink="http://www.w3.org/1999/xlink" x="0px" y="0px"
	 width="504px" height="243px" viewBox="0 0 504 243" enable-background="new 0 0 504 243" xml:space="preserve">
<path fill="#FAD700" d="M0,110.867V0h63.291v110.865H0V110.867z M6.932,94.458h49.426V76.654H25.031V63.921h22.967V46.117H25.031
	V33.384h31.328V15.579H6.932V94.458z"/>
<path fill="#FAD700" d="M61.898,110.867V0h64.438v110.865H61.898V110.867z M67.573,76.343c0.688,2.83,1.832,5.357,3.431,7.582
	c1.599,2.227,3.525,4.115,5.778,5.668c2.252,1.553,4.772,2.752,7.558,3.598c2.786,0.846,5.761,1.268,8.925,1.268
	c4.093,0,7.756-0.475,10.989-1.424c3.233-0.947,5.993-2.26,8.281-3.934c2.287-1.673,4.083-3.623,5.391-5.848
	c1.307-2.228,2.029-4.598,2.167-7.117v-1.501c0-4.037-0.705-7.522-2.115-10.455c-1.411-2.933-3.276-5.563-5.598-7.894
	c-2.322-2.33-4.979-4.408-7.971-6.236c-2.992-1.829-6.105-3.675-9.338-5.538c-2.339-1.69-4.05-3.045-5.134-4.063
	c-1.083-1.018-1.625-2.2-1.625-3.545c0-1.76,0.576-3.08,1.729-3.959c1.152-0.88,2.433-1.32,3.843-1.32
	c1.342,0,2.528,0.276,3.56,0.828c1.032,0.552,1.917,1.234,2.657,2.044c0.739,0.811,1.315,1.7,1.728,2.666s0.722,1.829,0.929,2.588
	l15.529-6.159c-0.344-2.104-1.075-4.235-2.193-6.392c-1.118-2.156-2.683-4.08-4.695-5.771c-2.012-1.69-4.48-3.088-7.403-4.192
	c-2.924-1.104-6.329-1.656-10.215-1.656c-3.233,0.069-6.364,0.569-9.39,1.501c-3.027,0.932-5.701,2.277-8.022,4.037
	c-2.322,1.76-4.188,3.951-5.598,6.573c-1.411,2.623-2.115,5.659-2.115,9.109c0,3.761,0.653,6.875,1.96,9.342
	c1.307,2.467,3.104,4.684,5.392,6.651c2.287,1.967,4.961,3.856,8.022,5.667c3.061,1.812,6.38,3.927,9.958,6.342
	c1.616,1.139,2.871,2.208,3.766,3.209c0.962,1.104,1.444,2.329,1.444,3.675c0,1.795-0.55,3.142-1.651,4.037
	c-1.169,0.933-2.356,1.449-3.56,1.553c-0.276,0.035-0.551,0.052-0.826,0.052c-1.101,0-2.133-0.311-3.095-0.932
	c-1.238-0.828-2.279-1.751-3.122-2.77c-0.843-1.018-1.496-1.983-1.96-2.897c-0.464-0.914-0.628-1.405-0.49-1.476L67.573,76.343z"/>
<path fill="#FAD700" d="M125.563,110.867V0h60.001v110.865h-60.001V110.867z M132.321,94.458h18.058V66.664h5.873h0.104
	c3.396,0,6.479-0.611,9.25-1.836c2.771-1.226,5.128-2.969,7.068-5.229c1.939-2.26,3.447-4.951,4.521-8.074
	c1.074-3.123,1.612-6.582,1.612-10.377c0-3.899-0.536-7.418-1.607-10.559c-1.071-3.14-2.574-5.823-4.508-8.048
	c-1.935-2.226-4.285-3.942-7.048-5.15s-5.838-1.812-9.224-1.812h-0.104h-23.994L132.321,94.458L132.321,94.458z"/>
<path fill="#FAD700" d="M184.688,110.867V0h62.736v110.865h-62.736V110.867z M191.446,94.458h17.748V68.787h0.206l10.577,25.672
	h20.361L224.414,62.99c0.928,0,2.201-0.481,3.817-1.449c1.617-0.965,3.216-2.381,4.798-4.243c1.582-1.863,2.949-4.175,4.102-6.937
	c1.152-2.76,1.729-5.9,1.729-9.42c0-3.381-0.387-6.616-1.161-9.705c-0.774-3.088-2.056-5.779-3.844-8.074
	c-1.789-2.294-4.179-4.132-7.171-5.512c-2.993-1.38-6.742-2.07-11.247-2.07h-0.104h-23.887V94.458L191.446,94.458z"/>
<path fill="#FAD700" d="M246.134,110.867V0h61.704v110.865h-61.704V110.867z M252.892,94.458h48.187V76.654h-30.542V63.921h22.391
	V46.117h-22.391V33.384h30.542V15.579h-48.187V94.458L252.892,94.458z"/>
<path fill="#FAD700" d="M306.445,110.867V0h64.438v110.865h-64.438V110.867z M312.12,76.343c0.688,2.83,1.832,5.357,3.431,7.582
	c1.6,2.227,3.525,4.115,5.778,5.668c2.252,1.553,4.772,2.752,7.558,3.598c2.786,0.846,5.762,1.268,8.926,1.268
	c4.092,0,7.756-0.475,10.988-1.424c3.233-0.947,5.993-2.26,8.281-3.934c2.287-1.673,4.083-3.623,5.391-5.848
	c1.307-2.228,2.029-4.598,2.168-7.117v-1.501c0-4.037-0.705-7.522-2.115-10.455c-1.412-2.933-3.276-5.563-5.599-7.894
	c-2.321-2.33-4.979-4.408-7.971-6.236c-2.992-1.829-6.104-3.675-9.338-5.538c-2.339-1.69-4.05-3.045-5.134-4.063
	s-1.625-2.2-1.625-3.545c0-1.76,0.576-3.08,1.729-3.959c1.152-0.88,2.434-1.32,3.844-1.32c1.342,0,2.527,0.276,3.56,0.828
	s1.917,1.234,2.657,2.044c0.738,0.811,1.314,1.7,1.728,2.666s0.722,1.829,0.929,2.588l15.529-6.159
	c-0.344-2.104-1.075-4.235-2.193-6.392c-1.117-2.156-2.683-4.08-4.695-5.771c-2.012-1.69-4.479-3.088-7.402-4.192
	c-2.924-1.104-6.329-1.656-10.215-1.656c-3.233,0.069-6.364,0.569-9.391,1.501s-5.701,2.277-8.021,4.037
	c-2.322,1.76-4.188,3.951-5.598,6.573c-1.412,2.623-2.115,5.659-2.115,9.109c0,3.761,0.652,6.875,1.96,9.342
	c1.307,2.467,3.104,4.684,5.392,6.651c2.287,1.967,4.961,3.856,8.022,5.667c3.062,1.812,6.38,3.927,9.958,6.342
	c1.615,1.139,2.871,2.208,3.766,3.209c0.963,1.104,1.444,2.329,1.444,3.675c0,1.795-0.55,3.142-1.651,4.037
	c-1.169,0.933-2.355,1.449-3.56,1.553c-0.276,0.035-0.552,0.052-0.826,0.052c-1.101,0-2.133-0.311-3.095-0.932
	c-1.238-0.828-2.279-1.751-3.122-2.77c-0.843-1.018-1.496-1.983-1.96-2.897c-0.465-0.914-0.629-1.405-0.49-1.476L312.12,76.343z"/>
<path fill="#FAD700" d="M370.109,110.867V0h64.439v110.865h-64.439V110.867z M375.785,76.343c0.688,2.83,1.832,5.357,3.431,7.582
	c1.599,2.227,3.525,4.115,5.778,5.668c2.252,1.553,4.771,2.752,7.559,3.598c2.785,0.846,5.76,1.268,8.924,1.268
	c4.094,0,7.757-0.475,10.989-1.424c3.232-0.947,5.993-2.26,8.28-3.934c2.287-1.673,4.084-3.623,5.392-5.848
	c1.308-2.228,2.029-4.598,2.167-7.117v-1.501c0-4.037-0.705-7.522-2.114-10.455c-1.411-2.933-3.276-5.563-5.599-7.894
	c-2.32-2.33-4.979-4.408-7.971-6.236c-2.993-1.829-6.106-3.675-9.339-5.538c-2.339-1.69-4.05-3.045-5.133-4.063
	c-1.085-1.018-1.626-2.2-1.626-3.545c0-1.76,0.576-3.08,1.729-3.959c1.151-0.88,2.434-1.32,3.843-1.32
	c1.343,0,2.528,0.276,3.562,0.828c1.031,0.552,1.916,1.234,2.656,2.044c0.738,0.811,1.314,1.7,1.729,2.666
	c0.413,0.966,0.723,1.829,0.929,2.588l15.529-6.159c-0.344-2.104-1.075-4.235-2.192-6.392c-1.117-2.156-2.683-4.08-4.694-5.771
	c-2.012-1.69-4.48-3.088-7.403-4.192c-2.924-1.104-6.329-1.656-10.215-1.656c-3.233,0.069-6.364,0.569-9.39,1.501
	c-3.027,0.932-5.701,2.277-8.022,4.037c-2.321,1.76-4.188,3.951-5.599,6.573c-1.41,2.623-2.114,5.659-2.114,9.109
	c0,3.761,0.653,6.875,1.96,9.342s3.104,4.684,5.393,6.651c2.286,1.967,4.961,3.856,8.021,5.667c3.061,1.812,6.379,3.927,9.958,6.342
	c1.616,1.139,2.871,2.208,3.766,3.209c0.963,1.104,1.445,2.329,1.445,3.675c0,1.795-0.551,3.142-1.651,4.037
	c-1.17,0.933-2.355,1.449-3.56,1.553c-0.275,0.035-0.551,0.052-0.825,0.052c-1.102,0-2.134-0.311-3.096-0.932
	c-1.238-0.828-2.279-1.751-3.122-2.77c-0.843-1.018-1.496-1.983-1.96-2.897c-0.465-0.914-0.629-1.405-0.49-1.476L375.785,76.343z"/>
<path fill="#FAD700" d="M433.774,110.867V0h70.319v110.865h-70.319V110.867z M440.018,63.093c0.068,4.244,0.68,8.238,1.831,11.982
	c1.152,3.743,3.104,7.1,5.856,10.065c2.957,3.037,6.285,5.365,9.982,6.987c3.696,1.621,7.593,2.433,11.686,2.433h0.104
	c4.161,0,8.092-0.812,11.789-2.433c3.696-1.622,6.99-3.985,9.881-7.092c2.818-2.967,4.806-6.418,5.959-10.352
	c1.15-3.934,1.728-7.798,1.728-11.594V44.616c-0.068-3.588-0.729-7.082-1.985-10.481c-1.257-3.398-3.155-6.426-5.7-9.083
	c-2.891-3.036-6.185-5.374-9.881-7.013c-3.697-1.639-7.628-2.458-11.788-2.458h-0.104c-4.162,0-8.074,0.811-11.737,2.433
	s-6.974,3.968-9.931,7.039c-2.478,2.691-4.378,5.78-5.701,9.265c-1.324,3.485-1.985,6.918-1.985,10.3v18.475H440.018z"/>
<g>
	<g>
		<path fill="#FAD700" d="M101.789,243V132.133h71.508v110.865h-71.508V243z M106.433,195.537c0.137,4.521,0.878,8.688,2.223,12.5
			c1.344,3.812,3.23,7.1,5.66,9.859c2.429,2.76,5.443,4.916,9.044,6.469c3.602,1.555,7.762,2.33,12.482,2.33h0.104
			c3.032,0,5.927-0.404,8.685-1.217c2.756-0.811,5.279-1.889,7.57-3.234s4.376-2.916,6.254-4.711
			c1.879-1.793,3.488-3.656,4.833-5.59v-27.535h-25.435v15.27h8.375v3.934c-0.794,1.416-1.931,2.57-3.412,3.469
			c-1.413,0.861-3.239,1.295-5.479,1.295c-0.174,0-0.346,0-0.518,0c-1.754,0-3.371-0.355-4.85-1.062
			c-1.479-0.707-2.77-1.646-3.869-2.82c-1.102-1.174-1.97-2.588-2.605-4.244c-0.637-1.656-0.953-3.434-0.953-5.33v-15.373
			c0-3.9,1.039-7.031,3.12-9.395c2.08-2.363,4.894-3.545,8.437-3.545c1.825,0,3.333,0.301,4.521,0.906
			c1.188,0.604,2.188,1.328,2.997,2.174c0.811,0.846,1.447,1.76,1.912,2.742s0.869,1.873,1.215,2.666l14.631-9.678
			c-0.688-1.07-1.5-2.555-2.431-4.451c-0.93-1.898-2.291-3.805-4.083-5.719c-1.792-1.916-4.187-3.598-7.184-5.047
			c-2.998-1.449-6.909-2.277-11.732-2.484h-0.104c-4.79,0-9.021,0.854-12.689,2.562c-3.669,1.707-6.734,3.984-9.199,6.832
			c-2.464,2.848-4.333,6.186-5.607,10.016c-1.275,3.83-1.912,7.865-1.912,12.109V195.537L106.433,195.537z"/>
		<path fill="#FAD700" d="M172.47,243V132.133h70.372v110.865H172.47V243z M179.229,195.123c0,4.176,0.508,8.17,1.524,11.982
			c1.016,3.812,2.653,7.186,4.91,10.117c2.258,2.932,5.194,5.246,8.812,6.936c3.445,1.623,7.615,2.434,12.509,2.434
			c0.206,0,0.413,0,0.619,0h0.104c0.205,0,0.411,0,0.617,0c4.411,0,8.287-0.725,11.631-2.174c3.516-1.518,6.461-3.676,8.839-6.471
			c2.377-2.795,4.187-6.133,5.427-10.014c1.241-3.883,1.861-8.152,1.861-12.811v-47.514h-18.366v46.115
			c0,1.898-0.189,3.701-0.568,5.41c-0.378,1.707-0.972,3.189-1.779,4.451c-0.809,1.26-1.85,2.26-3.12,3.002
			c-1.273,0.742-2.786,1.111-4.54,1.111c-1.756,0-3.27-0.369-4.541-1.111c-1.272-0.742-2.33-1.742-3.174-3.002
			c-0.843-1.262-1.462-2.744-1.856-4.451c-0.396-1.709-0.593-3.512-0.593-5.41v-46.115h-18.315L179.229,195.123L179.229,195.123z"/>
		<path fill="#FAD700" d="M241.346,243V132.133h31.266v110.865h-31.266V243z M248.104,226.592h17.748v-78.879h-17.748V226.592z"/>
		<path fill="#FAD700" d="M271.939,243V132.133h69.289v110.865h-69.289V243z M279.782,226.592h15.875h2.319
			c6.391,0,11.802-1.062,16.235-3.186c4.432-2.121,8.022-4.984,10.771-8.592c2.749-3.604,4.716-7.789,5.902-12.551
			c1.185-4.762,1.777-9.799,1.777-15.113c0-5.59-0.772-10.799-2.318-15.631c-1.546-4.83-3.866-8.996-6.959-12.5
			c-3.093-3.502-6.958-6.262-11.598-8.281c-4.639-2.018-10.016-3.027-16.132-3.027H279.78v78.881H279.782z"/>
		<path fill="#FAD700" d="M340.506,243V132.133h61.705v110.865h-61.705V243z M347.265,226.592h48.188v-17.805h-30.543v-12.732
			h22.393V178.25h-22.393v-12.732h30.543v-17.805h-48.188V226.592z"/>
	</g>
	<path fill="#FAD700" d="M0,243V132.133h102.789v110.865H0V243z"/>
	<path fill="#FAD700" d="M401.211,243V132.133H504v110.865H401.211V243z"/>
</g>
</svg>
